<svg xmlns="http://www.w3.org/2000/svg" viewBox="0 0 40 40" width="40" height="40"><circle cx="20" cy="17" r="11" fill="#f2c230"/>
  <rect x="19" y="1" width="2" height="4" rx="1" fill="#f2c230" transform="rotate(0 20 17)"/><rect x="19" y="1" width="2" height="4" rx="1" fill="#f2c230" transform="rotate(45 20 17)"/><rect x="19" y="1" width="2" height="4" rx="1" fill="#f2c230" transform="rotate(90 20 17)"/><rect x="19" y="1" width="2" height="4" rx="1" fill="#f2c230" transform="rotate(135 20 17)"/><rect x="19" y="1" width="2" height="4" rx="1" fill="#f2c230" transform="rotate(180 20 17)"/><rect x="19" y="1" width="2" height="4" rx="1" fill="#f2c230" transform="rotate(225 20 17)"/><rect x="19" y="1" width="2" height="4" rx="1" fill="#f2c230" transform="rotate(270 20 17)"/><rect x="19" y="1" width="2" height="4" rx="1" fill="#f2c230" transform="rotate(315 20 17)"/>
  <path d="M4 26h32l-2 6H6z" fill="#e5572f"/>
  <path d="M4 26h3.2l-.4 6h-3.2z" fill="#fff6e6"/><path d="M10.4 26h3.2l-.4 6h-3.2z" fill="#fff6e6"/><path d="M16.8 26h3.2l-.4 6h-3.2z" fill="#fff6e6"/><path d="M23.200000000000003 26h3.2l-.4 6h-3.2z" fill="#fff6e6"/><path d="M29.6 26h3.2l-.4 6h-3.2z" fill="#fff6e6"/>
  <path d="M4 32a3.2 3.2 0 006.4 0z" fill="#e5572f"/><path d="M10.4 32a3.2 3.2 0 006.4 0z" fill="#fff6e6"/><path d="M16.8 32a3.2 3.2 0 006.4 0z" fill="#e5572f"/><path d="M23.200000000000003 32a3.2 3.2 0 006.4 0z" fill="#fff6e6"/><path d="M29.6 32a3.2 3.2 0 006.4 0z" fill="#e5572f"/></svg>